{
.formatVersion = 3;
DisplayStrings = (
"रॆधॆ की सखी मीनॆ रॆत मिलकर घर \rसजॆयॆ रॆधॆ िदवॆली फर दीयॆ जलॆ\rदीय ठडी क रोशनी घर जगमगॆ मिलकर\rहलवा खीर बॆहर की हवॆ चल रह छल कर \ri am on a hill. moon light glow a path up \rhigh. no bird will cry. cold wind will blow. \rno harm will find a way.",
"ी"
);
familyName = Unnamed;
customParameters = (
{
name = glyphOrder;
value = (
.notdef,
"candrabinduinverted-deva",
"candrabindu-deva",
"anusvara-deva",
"visarga-deva",
"ashort-deva",
"a-deva",
"aa-deva",
"i-deva",
"ii-deva",
"u-deva",
"uu-deva",
"vocalicr-deva",
"vocalicl-deva",
"ecandra-deva",
"eshort-deva",
"e-deva",
"ai-deva",
"ocandra-deva",
"oshort-deva",
"o-deva",
"au-deva",
"oesign-deva",
"ooesign-deva",
"nukta-deva",
"avagraha-deva",
"aasign-deva",
"isign-deva",
"iisign-deva",
"usign-deva",
"uusign-deva",
"vocalicrsign-deva",
"vocalicrrsign-deva",
"esigncandra-deva",
"esignshort-deva",
"esign-deva",
"aisign-deva",
"osigncandra-deva",
"osignshort-deva",
"osign-deva",
"ausign-deva",
"virama-deva",
"esignprishthamatra-deva",
"awsign-deva",
"om-deva",
"esigncandralong-deva",
"uesign-deva",
"uuesign-deva",
"qa-deva",
"khha-deva",
"ghha-deva",
"za-deva",
"dddha-deva",
"rha-deva",
"fa-deva",
"yya-deva",
"vocalicrr-deva",
"vocalicll-deva",
"vocaliclsign-deva",
"vocalicllsign-deva",
"zero-deva",
"one-deva",
"two-deva",
"three-deva",
"four-deva",
"five-deva",
"six-deva",
"seven-deva",
"eight-deva",
"nine-deva",
"abbreviation-deva",
"dothigh-deva",
"acandra-deva",
"oe-deva",
"ooe-deva",
"aw-deva",
"ue-deva",
"uue-deva",
"marwaridda-deva",
"zha-deva",
"yaheavy-deva",
"gga-deva",
"jja-deva",
"glottalstop-deva",
"ddda-deva",
"bba-deva",
a,
b,
c,
d,
e,
f,
g,
h,
i,
j,
k,
l,
m,
n,
o,
p,
q,
r,
s,
t,
u,
v,
w,
x,
y,
z,
"oesign-deva.1",
"ooesign-deva.1",
"nukta-deva.1",
"avagraha-deva.1",
"aasign-deva.1",
"isign-deva.1",
"iisign-deva.1",
"usign-deva.1",
"uusign-deva.1",
"vocalicrsign-deva.1",
"vocalicrrsign-deva.1",
"esigncandra-deva.1",
"esignshort-deva.1",
"esign-deva.1",
"aisign-deva.1",

glyphs = (
{
color = (153, 154, 255, 255);
glyphname = "a-deva";
layers = (
{
layerId = "6DAC43B8-F58E-4AB3-9E67-F272EAC2B07B";
shapes = (
{
attr = {
strokeWidth = 80;
};
closed = 0;
nodes = (
(639,627,l),
(639,0,l)
);
},
{
attr = {
strokeWidth = 80;
};
closed = 0;
nodes = (
(438,660,l),
(779,660,l)
);
},
{
attr = {
strokeWidth = 80;
};
closed = 0;
nodes = (
(140,382,l),
(191,382,o),
(330,376,o),
(355,503,cs),
(395,700,o),
(103,717,o),
(103,561,c)
);
},
{
attr = {
strokeWidth = 80;
};
closed = 0;
nodes = (
(60,201,l),
(52,28,o),
(390,6,o),
(398,200,cs),
(405,377,o),
(239,384,o),
(157,383,c)
);
},
{
attr = {
strokeWidth = 80;
};
closed = 0;
nodes = (
(369,320,l),
(606,320,l)
);
}
);
width = 758;
}
);
unicode = 2309;
},
{
color = (153, 154, 255, 255);
glyphname = "aa-deva";
layers = (
{
layerId = "6DAC43B8-F58E-4AB3-9E67-F272EAC2B07B";
shapes = (
{
attr = {
strokeWidth = 80;
};
closed = 0;
nodes = (
(640,627,l),
(640,0,l)
);
},
{
attr = {
strokeWidth = 80;
};
closed = 0;
nodes = (
(438,660,l),
(983,660,l)
);
},
{
attr = {
strokeWidth = 80;
};
closed = 0;
nodes = (
(140,382,l),
(191,382,o),
(330,376,o),
(355,503,cs),
(395,700,o),
(103,717,o),
(103,561,c)
);
},
{
attr = {
strokeWidth = 80;
};
closed = 0;
nodes = (
(60,201,l),
(52,28,o),
(390,6,o),
(398,200,cs),
(405,377,o),
(239,384,o),
(157,383,c)
);
},
{
attr = {
strokeWidth = 80;
};
closed = 0;
nodes = (
(369,320,l),
(606,320,l)
);
},
{
attr = {
strokeWidth = 80;
};
closed = 0;
nodes = (
(839,627,l),
(839,0,l)
);
}
);
width = 959;
}
);
unicode = 2310;
},
{
color = (153, 154, 255, 255);
glyphname = "i-deva";
layers = (
{
layerId = "6DAC43B8-F58E-4AB3-9E67-F272EAC2B07B";
shapes = (
{
attr = {
strokeWidth = 80;
};
closed = 0;
nodes = (
(-16,660,l),
(586,660,l)
);
},
{
attr = {
strokeWidth = 80;
};
closed = 0;
nodes = (
(380,644,l),
(379,480,l),
(202,480,l),
(71,484,o),
(82,282,o),
(161,282,cs),
(381,282,ls),
(445,282,o),
(463,55,o),
(325,43,cs),
(144,28,o),
(35,61,o),
(106,132,cs),
(123,149,o),
(113,-11,o),
(149,-73,cs),
(181,-129,o),
(218,-122,o),
(232,-122,c)
);
}
);
width = 540;
}
);
unicode = 2311;
},
{
color = (153, 154, 255, 255);
glyphname = "ii-deva";
layers = (
{
layerId = "6DAC43B8-F58E-4AB3-9E67-F272EAC2B07B";
shapes = (
{
attr = {
strokeWidth = 80;
};
closed = 0;
nodes = (
(-16,660,l),
(586,660,l)
);
},
{
attr = {
strokeWidth = 80;
};
closed = 0;
nodes = (
(380,644,l),
(379,480,l),
(202,480,l),
(71,484,o),
(82,282,o),
(161,282,cs),
(381,282,ls),
(445,282,o),
(463,55,o),
(325,43,cs),
(144,28,o),
(35,61,o),
(106,132,cs),
(123,149,o),
(113,-11,o),
(149,-73,cs),
(181,-129,o),
(218,-122,o),
(232,-122,c)
);
},
{
attr = {
strokeWidth = 80;
};
closed = 0;
nodes = (
(403,660,l),
(130,644,o),
(123,970,o),
(420,951,c)
);
}
);
width = 420;
}
);
unicode = 2312;
},
{
color = (153, 154, 255, 255);
glyphname = "u-deva";
layers = (
{
layerId = "6DAC43B8-F58E-4AB3-9E67-F272EAC2B07B";
shapes = (
{
attr = {
strokeWidth = 80;
};
closed = 0;
nodes = (
(161,360,l),
(214,360,o),
(366,355,o),
(393,487,cs),
(434,692,o),
(121,715,o),
(121,553,c)
);
},
{
attr = {
strokeWidth = 80;
};
closed = 0;
nodes = (
(81,180,l),
(73,0,o),
(431,-23,o),
(439,179,cs),
(446,363,o),
(264,362,o),
(178,361,c)
);
},
{
attr = {
strokeWidth = 80;
};
closed = 0;
nodes = (
(-42,660,l),
(626,660,l)
);
}
);
width = 519;
}
);
unicode = 2313;
},
{
color = (153, 154, 255, 255);
glyphname = "uu-deva";
layers = (
{
layerId = "6DAC43B8-F58E-4AB3-9E67-F272EAC2B07B";
shapes = (
{
attr = {
strokeWidth = 80;
};
closed = 0;
nodes = (
(161,360,l),
(214,360,o),
(366,355,o),
(393,487,cs),
(434,692,o),
(121,715,o),
(121,553,c)
);
},
{
attr = {
strokeWidth = 80;
};
closed = 0;
nodes = (
(81,180,l),
(73,0,o),
(431,-23,o),
(439,179,cs),
(446,363,o),
(264,362,o),
(178,361,c)
);
},
{
attr = {
strokeWidth = 80;
};
closed = 0;
nodes = (
(-42,660,l),
(723,660,l)
);
},
{
attr = {
strokeWidth = 80;
};
closed = 0;
nodes = (
(377,290,l),
(514,427,o),
(744,267,o),
(560,76,c)
);
}
);
width = 680;
}
);
unicode = 2314;
},
{
color = (153, 154, 255, 255);
glyphname = "ocandra-deva";
layers = (
{
layerId = "6DAC43B8-F58E-4AB3-9E67-F272EAC2B07B";
shapes = (
{
attr = {
strokeWidth = 80;
};
closed = 0;
nodes = (
(640,627,l),
(640,0,l)
);
},
{
attr = {
strokeWidth = 80;
};
closed = 0;
nodes = (
(438,660,l),
(983,660,l)
);
},
{
attr = {
strokeWidth = 80;
};
closed = 0;
nodes = (
(140,382,l),
(191,382,o),
(330,376,o),
(355,503,cs),
(395,700,o),
(103,717,o),
(103,561,c)
);
},
{
attr = {
strokeWidth = 80;
};
closed = 0;
nodes = (
(60,201,l),
(52,28,o),
(390,6,o),
(398,200,cs),
(405,377,o),
(239,384,o),
(157,383,c)
);
},
{
attr = {
strokeWidth = 80;
};
closed = 0;
nodes = (
(369,320,l),
(606,320,l)
);
},
{
attr = {
strokeWidth = 80;
};
closed = 0;
nodes = (
(839,627,l),
(839,0,l)
);
},
{
attr = {
strokeWidth = 80;
};
closed = 0;
nodes = (
(905,977,l),
(921,733,o),
(595,727,o),
(614,992,c)
);
}
);
width = 979;
}
);
unicode = 2321;
},
{
color = (153, 154, 255, 255);
glyphname = "oshort-deva";
layers = (
{
layerId = "6DAC43B8-F58E-4AB3-9E67-F272EAC2B07B";
shapes = (
{
attr = {
strokeWidth = 80;
};
closed = 0;
nodes = (
(640,627,l),
(640,0,l)
);
},
{
attr = {
strokeWidth = 80;
};
closed = 0;
nodes = (
(438,660,l),
(1030,660,l)
);
},
{
attr = {
strokeWidth = 80;
};
closed = 0;
nodes = (
(140,382,l),
(191,382,o),
(330,376,o),
(355,503,cs),
(395,700,o),
(103,717,o),
(103,561,c)
);
},
{
attr = {
strokeWidth = 80;
};
closed = 0;
nodes = (
(60,201,l),
(52,28,o),
(390,6,o),
(398,200,cs),
(405,377,o),
(239,384,o),
(157,383,c)
);
},
{
attr = {
strokeWidth = 80;
};
closed = 0;
nodes = (
(369,320,l),
(606,320,l)
);
},
{
attr = {
strokeWidth = 80;
};
closed = 0;
nodes = (
(839,627,l),
(839,0,l)
);
},
{
attr = {
strokeWidth = 80;
};
closed = 0;
nodes = (
(840,645,l),
(837,762,o),
(804,980,o),
(629,920,cs)
);
}
);
width = 1001;
}
);
unicode = 2322;
},
{
color = (153, 154, 255, 255);
glyphname = "o-deva";
layers = (
{
layerId = "6DAC43B8-F58E-4AB3-9E67-F272EAC2B07B";
shapes = (
{
attr = {
strokeWidth = 80;
};
closed = 0;
nodes = (
(640,627,l),
(640,0,l)
);
},
{
attr = {
strokeWidth = 80;
};
closed = 0;
nodes = (
(438,660,l),
(1030,660,l)
);
},
{
attr = {
strokeWidth = 80;
};
closed = 0;
nodes = (
(140,382,l),
(191,382,o),
(330,376,o),
(355,503,cs),
(395,700,o),
(103,717,o),
(103,561,c)
);
},
{
attr = {
strokeWidth = 80;
};
closed = 0;
nodes = (
(60,201,l),
(52,28,o),
(390,6,o),
(398,200,cs),
(405,377,o),
(239,384,o),
(157,383,c)
);
},
{
attr = {
strokeWidth = 80;
};
closed = 0;
nodes = (
(369,320,l),
(606,320,l)
);
},
{
attr = {
strokeWidth = 80;
};
closed = 0;
nodes = (
(839,627,l),
(839,0,l)
);
},
{
attr = {
strokeWidth = 80;
};
closed = 0;
nodes = (
(840,645,l),
(837,762,o),
(804,980,o),
(629,920,cs)
);
}
);
width = 999;
}
);
unicode = 2323;
},
{
color = (153, 154, 255, 255);
glyphname = "au-deva";
layers = (
{
layerId = "6DAC43B8-F58E-4AB3-9E67-F272EAC2B07B";
shapes = (
{
attr = {
strokeWidth = 80;
};
closed = 0;
nodes = (
(640,627,l),
(640,0,l)
);
},
{
attr = {
strokeWidth = 80;
};
closed = 0;
nodes = (
(438,660,l),
(1003,660,l)
);
},
{
attr = {
strokeWidth = 80;
};
closed = 0;
nodes = (
(140,382,l),
(191,382,o),
(330,376,o),
(355,503,cs),
(395,700,o),
(103,717,o),
(103,561,c)
);
},
{
attr = {
strokeWidth = 80;
};
closed = 0;
nodes = (
(60,201,l),
(52,28,o),
(390,6,o),
(398,200,cs),
(405,377,o),
(239,384,o),
(157,383,c)
);
},
{
attr = {
strokeWidth = 80;
};
closed = 0;
nodes = (
(369,320,l),
(606,320,l)
);
},
{
attr = {
strokeWidth = 80;
};
closed = 0;
nodes = (
(839,627,l),
(839,0,l)
);
},
{
attr = {
strokeWidth = 80;
};
closed = 0;
nodes = (
(805,638,l),
(782,707,o),
(717,824,o),
(603,824,c)
);
},
{
attr = {
strokeWidth = 80;
};
closed = 0;
nodes = (
(840,645,l),
(837,762,o),
(836,938,o),
(691,955,cs)
);
}
);
width = 978;
}
);
unicode = 2324;
},
{
color = (153, 154, 255, 255);
glyphname = "oesign-deva";
layers = (
{
guides = (
{
position = "{0, 114}";
}
);
layerId = "B30EA165-19C2-4F34-BC31-371C20B6C198";
name = regular;
shapes = (
{
attr = {
strokeWidth = 80;
};
closed = 0;
nodes = (
(440,627,l),
(440,0,l)
);
},
{
attr = {
strokeWidth = 80;
};
closed = 0;
nodes = (
(-22,660,l),
(904,660,l)
);
},
{
attr = {
strokeWidth = 80;
};
closed = 0;
nodes = (
(437,371,l),
(479,484,o),
(618,517,o),
(707,430,cs),
(800,340,o),
(779,119,o),
(558,160,c)
);
},
{
attr = {
strokeWidth = 80;
};
closed = 0;
nodes = (
(441,204,l),
(441,204,o),
(348,122,o),
(229,146,cs),
(80,175,o),
(61,376,o),
(159,448,cs),
(219,493,o),
(373,500,o),
(442,410,c)
);
}
);
width = 861;
}
);
unicode = (2362,2325);
},
{
color = (153, 154, 255, 255);
glyphname = "ooesign-deva";
layers = (
{
layerId = "B30EA165-19C2-4F34-BC31-371C20B6C198";
name = regular;
shapes = (
{
attr = {
strokeWidth = 80;
};
closed = 0;
nodes = (
(640,627,l),
(640,0,l)
);
},
{
attr = {
strokeWidth = 80;
};
closed = 0;
nodes = (
(-30,660,l),
(213,660,o),
(548,660,o),
(791,660,c)
);
},
{
attr = {
strokeWidth = 80;
};
closed = 0;
nodes = (
(641,314,l),
(641,314,o),
(577,195,o),
(449,252,cs),
(362,290,o),
(349,394,o),
(402,457,cs),
(446,509,o),
(561,531,o),
(641,437,c)
);
},
{
attr = {
strokeWidth = 80;
};
closed = 0;
nodes = (
(80,401,l),
(78,214,o),
(176,81,o),
(362,81,cs),
(555,81,o),
(615,182,o),
(641,245,c)
);
},
{
attr = {
strokeWidth = 80;
};
closed = 0;
nodes = (
(53,660,l),
(298,660,o),
(353,352,o),
(55,352,c)
);
}
);
width = 759;
}
);
unicode = (2363,2326);
},
{
color = (153, 154, 255, 255);
glyphname = "nukta-deva";
layers = (
{
layerId = "B30EA165-19C2-4F34-BC31-371C20B6C198";
name = regular;
shapes = (
{
attr = {
strokeWidth = 80;
};
closed = 0;
nodes = (
(480,627,l),
(480,0,l)
);
},
{
attr = {
strokeWidth = 80;
};
closed = 0;
nodes = (
(-14,660,l),
(617,660,l)
);
},
{
attr = {
strokeWidth = 80;
};
closed = 0;
nodes = (
(200,636,l),
(200,336,ls),
(200,314,o),
(214,232,o),
(61,241,c)
);
}
);
width = 601;
}
);
unicode = (2364,2327);
},
{
color = (153, 154, 255, 255);
glyphname = "avagraha-deva";
layers = (
{
guides = (
{
position = "{0, 116}";
}
);
layerId = "B30EA165-19C2-4F34-BC31-371C20B6C198";
name = regular;
shapes = (
{
attr = {
strokeWidth = 80;
};
closed = 0;
nodes = (
(-31,660,l),
(675,660,l)
);
},
{
attr = {
strokeWidth = 80;
};
closed = 0;
nodes = (
(538,627,l),
(538,0,l)
);
},
{
attr = {
strokeWidth = 80;
};
closed = 0;
nodes = (
(298,422,l),
(19,388,o),
(33,660,o),
(194,660,cs)
);
},
{
attr = {
strokeWidth = 80;
};
closed = 0;
nodes = (
(325,422,l),
(207,422,o),
(149,378,o),
(141,312,cs),
(124,168,o),
(262,157,o),
(347,157,cs),
(506,157,o),
(531,277,o),
(538,349,c)
);
}
);
width = 660;
}
);
unicode = (2365,2328);
},
{
color = (153, 154, 255, 255);
glyphname = "aasign-deva";
layers = (
{
layerId = "B30EA165-19C2-4F34-BC31-371C20B6C198";
name = regular;
shapes = (
{
attr = {
strokeWidth = 80;
};
closed = 0;
nodes = (
(-19,660,l),
(647,660,l)
);
},
{
attr = {
strokeWidth = 80;
};
closed = 0;
nodes = (
(533,281,l),
(624,281,l)
);
},
{
attr = {
strokeWidth = 80;
};
closed = 0;
nodes = (
(420,643,l),
(420,480,l),
(227,480,l),
(80,484,o),
(99,281,o),
(183,281,cs),
(425,281,ls),
(494,281,o),
(517,56,o),
(378,40,cs),
(196,19,o),
(98,66,o),
(98,161,c)
);
}
);
width = 619;
}
);
unicode = (2366,2329);
},
{
color = (153, 154, 255, 255);
glyphname = "isign-deva";
layers = (
{
guides = (
{
position = "{0, 115}";
}
);
layerId = "B30EA165-19C2-4F34-BC31-371C20B6C198";
name = regular;
shapes = (
{
attr = {
strokeWidth = 80;
};
closed = 0;
nodes = (
(560,627,l),
(560,0,l)
);
},
{
attr = {
strokeWidth = 80;
};
closed = 0;
nodes = (
(-23,660,l),
(701,660,l)
);
},
{
attr = {
strokeWidth = 80;
};
closed = 0;
nodes = (
(38,419,l),
(315,419,l),
(200,417,o),
(178,357,o),
(180,285,cs),
(182,207,o),
(244,169,o),
(312,158,cs),
(493,130,o),
(547,281,o),
(561,328,c)
);
}
);
width = 680;
}
);
unicode = (2367,2330);
},
{
color = (153, 154, 255, 255);
glyphname = "iisign-deva";
layers = (
{
layerId = "B30EA165-19C2-4F34-BC31-371C20B6C198";
name = regular;
shapes = (
{
attr = {
strokeWidth = 80;
};
closed = 0;
nodes = (
(-20,660,l),
(762,659,l)
);
},
{
attr = {
strokeWidth = 80;
};
closed = 0;
nodes = (
(274,388,l),
(10,388,o),
(12,680,o),
(289,660,c)
);
},
{
attr = {
strokeWidth = 80;
};
closed = 0;
nodes = (
(279,388,l),
(202,390,o),
(142,332,o),
(138,275,cs),
(127,115,o),
(225,41,o),
(372,41,cs),
(737,41,o),
(719,450,o),
(533,440,cs),
(367,431,o),
(387,165,o),
(573,207,c),
(628,223,o),
(646,256,o),
(654,265,c)
);
},
{
attr = {
strokeWidth = 80;
};
closed = 0;
nodes = (
(561,415,l),
(561,685,l)
);
}
);
width = 740;
}
);
unicode = (2368,2331);
},
{
color = (153, 154, 255, 255);
glyphname = "usign-deva";
layers = (
{
guides = (
{
position = "{0, 409}";
},
{
position = "{0, 109}";
}
);
layerId = "022719D6-9DAB-4088-AC98-F18C0DF77DFF";
associatedMasterId = "6DAC43B8-F58E-4AB3-9E67-F272EAC2B07B";
name = 11;
shapes = (
{
attr = {
strokeWidth = 80;
};
closed = 0;
nodes = (
(599,627,l),
(599,0,l)
);
},
{
attr = {
strokeWidth = 80;
};
closed = 0;
nodes = (
(-19,660,l),
(734,660,l)
);
},
{
attr = {
strokeWidth = 80;
};
closed = 0;
nodes = (
(587,409,l),
(276,409,l)
);
},
{
attr = {
strokeWidth = 80;
};
closed = 0;
nodes = (
(70,400,l),
(70,356,o),
(69,288,o),
(136,210,cs),
(188,149,o),
(250,145,o),
(317,154,cs),
(424,169,o),
(479,340,o),
(317,409,c)
);
}
);
width = 720;
},
{
guides = (
{
position = "{0, 409}";
},
{
position = "{0, 109}";
}
);
layerId = "7AA5D38E-DBA0-4921-B212-5F2D6D95B2F1";
associatedMasterId = "6DAC43B8-F58E-4AB3-9E67-F272EAC2B07B";
name = 10;
shapes = (
{
attr = {
strokeWidth = 80;
};
closed = 0;
nodes = (
(599,627,l),
(599,0,l)
);
},
{
attr = {
strokeWidth = 80;
};
closed = 0;
nodes = (
(-19,660,l),
(734,660,l)
);
},
{
attr = {
strokeWidth = 80;
};
closed = 0;
nodes = (
(587,409,l),
(276,409,l)
);
},
{
attr = {
strokeWidth = 80;
};
closed = 0;
nodes = (
(70,400,l),
(70,356,o),
(69,288,o),
(136,210,cs),
(188,149,o),
(250,145,o),
(317,154,cs),
(424,169,o),
(479,340,o),
(317,409,c)
);
}
);
width = 720;
},
{
guides = (
{
position = "{0, 409}";
},
{
position = "{0, 109}";
}
);
layerId = "5A4F9F58-C931-480E-824A-E893708A8707";
associatedMasterId = "6DAC43B8-F58E-4AB3-9E67-F272EAC2B07B";
name = 9;
shapes = (
{
attr = {
strokeWidth = 80;
};
closed = 0;
nodes = (
(600,627,l),
(600,0,l)
);
},
{
attr = {
strokeWidth = 80;
};
closed = 0;
nodes = (
(-19,660,l),
(734,660,l)
);
},
{
attr = {
strokeWidth = 80;
};
closed = 0;
nodes = (
(590,420,l),
(279,420,l)
);
},
{
attr = {
strokeWidth = 80;
};
closed = 0;
nodes = (
(79,400,l),
(79,356,o),
(69,290,o),
(136,212,cs),
(188,151,o),
(252,143,o),
(319,152,cs),
(426,167,o),
(479,340,o),
(317,409,c)
);
}
);
width = 720;
},
{
guides = (
{
position = "{0, 409}";
},
{
position = "{0, 109}";
}
);
layerId = "E6C65CF8-076D-401C-94DA-D3A17B2319C5";
associatedMasterId = "6DAC43B8-F58E-4AB3-9E67-F272EAC2B07B";
name = 8;
shapes = (
{
attr = {
strokeWidth = 80;
};
closed = 0;
nodes = (
(599,627,l),
(599,0,l)
);
},
{
attr = {
strokeWidth = 80;
};
closed = 0;
nodes = (
(-19,660,l),
(734,660,l)
);
},
{
attr = {
strokeWidth = 80;
};
closed = 0;
nodes = (
(587,409,l),
(276,409,l)
);
},
{
attr = {
strokeWidth = 80;
};
closed = 0;
nodes = (
(70,400,l),
(70,356,o),
(69,288,o),
(136,210,cs),
(188,149,o),
(250,145,o),
(317,154,cs),
(424,169,o),
(479,340,o),
(317,409,c)
);
}
);
width = 720;
},
{
guides = (
{
position = "{0, 409}";
},
{
position = "{0, 109}";
}
);
layerId = "BE528A8F-C28D-4C43-81F3-4AC79E9C2004";
associatedMasterId = "6DAC43B8-F58E-4AB3-9E67-F272EAC2B07B";
name = 7;
shapes = (
{
attr = {
strokeWidth = 80;
};
closed = 0;
nodes = (
(599,627,l),
(599,0,l)
);
},
{
attr = {
strokeWidth = 80;
};
closed = 0;
nodes = (
(-19,660,l),
(734,660,l)
);
},
{
attr = {
strokeWidth = 80;
};
closed = 0;
nodes = (
(587,409,l),
(276,409,l)
);
},
{
attr = {
strokeWidth = 80;
};
closed = 0;
nodes = (
(70,400,l),
(70,356,o),
(69,288,o),
(136,210,cs),
(188,149,o),
(250,145,o),
(317,154,cs),
(424,169,o),
(479,340,o),
(317,409,c)
);
}
);
width = 720;
},
{
guides = (
{
position = "{0, 409}";
}
);
layerId = "9B38AD41-0E22-4C0E-A3E3-1B6DF6F9DD23";
associatedMasterId = "6DAC43B8-F58E-4AB3-9E67-F272EAC2B07B";
name = 6;
shapes = (
{
attr = {
strokeWidth = 80;
};
closed = 0;
nodes = (
(599,627,l),
(599,0,l)
);
},
{
attr = {
strokeWidth = 80;
};
closed = 0;
nodes = (
(-19,660,l),
(734,660,l)
);
},
{
attr = {
strokeWidth = 80;
};
closed = 0;
nodes = (
(587,409,l),
(276,409,l)
);
},
{
attr = {
strokeWidth = 80;
};
closed = 0;
nodes = (
(60,400,l),
(60,321,o),
(74,239,o),
(144,170,cs),
(201,114,o),
(260,111,o),
(313,121,cs),
(433,144,o),
(495,339,o),
(317,409,c)
);
}
);
width = 720;
},
{
guides = (
{
position = "{0, 409}";
}
);
layerId = "6A4F35B0-CB0F-439B-B1C2-41017A534AEB";
associatedMasterId = "6DAC43B8-F58E-4AB3-9E67-F272EAC2B07B";
name = 3;
shapes = (
{
attr = {
strokeWidth = 80;
};
closed = 0;
nodes = (
(599,627,l),
(599,0,l)
);
},
{
attr = {
strokeWidth = 80;
};
closed = 0;
nodes = (
(-19,660,l),
(734,660,l)
);
},
{
attr = {
strokeWidth = 80;
};
closed = 0;
nodes = (
(587,409,l),
(276,409,l)
);
},
{
attr = {
strokeWidth = 80;
};
closed = 0;
nodes = (
(39,400,l),
(39,321,o),
(53,239,o),
(123,170,cs),
(180,114,o),
(260,111,o),
(313,121,cs),
(433,144,o),
(495,339,o),
(317,409,c)
);
}
);
width = 720;
},
{
guides = (
{
position = "{0, 409}";
}
);
layerId = "32D6A2FF-AF8D-4293-B244-4079FCDFEE35";
associatedMasterId = "6DAC43B8-F58E-4AB3-9E67-F272EAC2B07B";
name = 1;
shapes = (
{
attr = {
strokeWidth = 80;
};
closed = 0;
nodes = (
(599,627,l),
(599,0,l)
);
},
{
attr = {
strokeWidth = 80;
};
closed = 0;
nodes = (
(-19,660,l),
(800,660,l)
);
},
{
attr = {
strokeWidth = 80;
};
closed = 0;
nodes = (
(587,409,l),
(276,409,l)
);
},
{
attr = {
strokeWidth = 80;
};
closed = 0;
nodes = (
(39,400,l),
(39,321,o),
(53,239,o),
(123,170,cs),
(180,114,o),
(260,111,o),
(313,121,cs),
(433,144,o),
(495,339,o),
(317,409,c)
);
}
);
width = 760;
},
{
guides = (
{
position = "{0, 409}";
}
);
layerId = "B3204B7C-9545-4C36-AAEF-2959DB7B6035";
associatedMasterId = "6DAC43B8-F58E-4AB3-9E67-F272EAC2B07B";
name = 4;
shapes = (
{
attr = {
strokeWidth = 160;
};
closed = 0;
nodes = (
(719,627,l),
(719,0,l)
);
},
{
attr = {
strokeWidth = 160;
};
closed = 0;
nodes = (
(-25,620,l),
(890,620,l)
);
},
{
attr = {
strokeWidth = 160;
};
closed = 0;
nodes = (
(667,400,l),
(244,400,l)
);
},
{
attr = {
strokeWidth = 160;
};
closed = 0;
nodes = (
(82,400,l),
(82,321,o),
(108,232,o),
(178,163,cs),
(235,107,o),
(341,111,o),
(394,121,cs),
(514,144,o),
(575,336,o),
(397,406,c)
);
}
);
width = 878;
},
{
guides = (
{
position = "{0, 409}";
}
);
layerId = "B21CCB51-6379-4D2A-BD3E-100FB8E6AD2A";
associatedMasterId = "6DAC43B8-F58E-4AB3-9E67-F272EAC2B07B";
name = 5;
shapes = (
{
attr = {
strokeWidth = 20;
};
closed = 0;
nodes = (
(599,680,l),
(599,0,l)
);
},
{
attr = {
strokeWidth = 20;
};
closed = 0;
nodes = (
(-19,690,l),
(734,690,l)
);
},
{
attr = {
strokeWidth = 20;
};
closed = 0;
nodes = (
(587,429,l),
(276,429,l),
(469,364,o),
(433,144,o),
(313,121,cs),
(260,111,o),
(180,114,o),
(123,170,cs),
(53,239,o),
(39,321,o),
(39,400,c)
);
}
);
width = 720;
},
{
guides = (
{
position = "{0, 409}";
}
);
layerId = "7679A5AC-7644-449A-A86C-BC3F09BF0D87";
associatedMasterId = "6DAC43B8-F58E-4AB3-9E67-F272EAC2B07B";
name = 2;
shapes = (
{
attr = {
strokeWidth = 80;
};
closed = 0;
nodes = (
(599,627,l),
(599,0,l)
);
},
{
attr = {
strokeWidth = 80;
};
closed = 0;
nodes = (
(-19,660,l),
(734,660,l)
);
},
{
attr = {
strokeWidth = 80;
};
closed = 0;
nodes = (
(587,409,l),
(276,409,l)
);
},
{
attr = {
strokeWidth = 80;
};
closed = 0;
nodes = (
(39,400,l),
(39,321,o),
(53,239,o),
(123,170,cs),
(180,114,o),
(260,111,o),
(313,121,cs),
(433,144,o),
(495,339,o),
(317,409,c)
);
}
);
width = 720;
},
{
layerId = "6DAC43B8-F58E-4AB3-9E67-F272EAC2B07B";
shapes = (
{
attr = {
strokeWidth = 80;
};
closed = 0;
nodes = (
(639,629,l),
(639,2,l)
);
},
{
attr = {
strokeWidth = 80;
};
closed = 0;
nodes = (
(-57,662,l),
(786,662,l)
);
},
{
attr = {
strokeWidth = 80;
};
closed = 0;
nodes = (
(627,411,l),
(316,411,l)
);
},
{
attr = {
strokeWidth = 80;
};
closed = 0;
nodes = (
(77,400,l),
(77,321,o),
(93,241,o),
(163,172,cs),
(220,116,o),
(300,113,o),
(353,123,cs),
(473,146,o),
(535,341,o),
(357,411,cs)
);
}
);
width = 760;
}
);
unicode = (2369,2332);
},
{
color = (153, 154, 255, 255);
glyphname = "uusign-deva";
layers = (
{
layerId = "B30EA165-19C2-4F34-BC31-371C20B6C198";
name = regular;
shapes = (
{
attr = {
strokeWidth = 80;
};
closed = 0;
nodes = (
(-16,660,l),
(734,660,l)
);
},
{
attr = {
strokeWidth = 80;
};
closed = 0;
nodes = (
(360,643,l),
(359,481,l),
(191,481,l),
(69,485,o),
(80,301,o),
(153,301,cs),
(357,301,ls),
(417,301,o),
(433,96,o),
(305,85,cs),
(137,71,o),
(36,103,o),
(102,168,cs),
(117,183,o),
(108,35,o),
(142,-23,cs),
(172,-75,o),
(206,-68,o),
(219,-68,c)
);
},
{
attr = {
strokeWidth = 80;
};
closed = 0;
nodes = (
(600,676,l),
(600,0,l)
);
},
{
attr = {
strokeWidth = 80;
};
closed = 0;
nodes = (
(579,301,l),
(300,301,l)
);
}
);
width = 720;
}
);
unicode = (2370,2333);
},
{
color = (153, 154, 255, 255);
glyphname = "vocalicrsign-deva";
layers = (
{
layerId = "B30EA165-19C2-4F34-BC31-371C20B6C198";
name = regular;
shapes = (
{
attr = {
strokeWidth = 80;
};
closed = 0;
nodes = (
(599,627,l),
(599,0,l)
);
},
{
attr = {
strokeWidth = 80;
};
closed = 0;
nodes = (
(-11,660,l),
(732,660,l)
);
},
{
attr = {
strokeWidth = 80;
};
closed = 0;
nodes = (
(587,360,l),
(396,360,l)
);
},
{
attr = {
strokeWidth = 80;
};
closed = 0;
nodes = (
(160,481,l),
(271,507,o),
(437,463,o),
(380,274,cs),
(352,182,o),
(252,173,o),
(180,187,c),
(72,216,o),
(78,323,o),
(78,361,c)
);
}
);
width = 720;
}
);
unicode = (2371,2334);
},
{
color = (153, 154, 255, 255);
glyphname = "vocalicrrsign-deva";
layers = (
{
layerId = "B30EA165-19C2-4F34-BC31-371C20B6C198";
name = regular;
shapes = (
{
attr = {
strokeWidth = 80;
};
closed = 0;
nodes = (
(-12,660,l),
(637,660,l)
);
},
{
attr = {
strokeWidth = 80;
};
closed = 0;
nodes = (
(440,637,l),
(440,460,l),
(244,460,l),
(244,460,o),
(121,429,o),
(105,327,cs),
(92,247,o),
(100,167,o),
(156,110,c),
(263,9,o),
(402,16,o),
(518,111,c)
);
}
);
width = 600;
}
);
unicode = (2372,2335);
},
{
color = (153, 154, 255, 255);
glyphname = "esigncandra-deva";
layers = (
{
layerId = "B30EA165-19C2-4F34-BC31-371C20B6C198";
name = regular;
shapes = (
{
attr = {
strokeWidth = 80;
};
closed = 0;
nodes = (
(-24,660,l),
(692,660,l)
);
},
{
attr = {
strokeWidth = 80;
};
closed = 0;
nodes = (
(420,637,l),
(420,460,l),
(239,460,l),
(239,460,o),
(119,430,o),
(103,328,cs),
(90,248,o),
(103,166,o),
(154,111,cs),
(255,2,o),
(472,21,o),
(524,117,c),
(581,197,o),
(599,416,o),
(403,467,c)
);
}
);
width = 660;
}
);
unicode = (2373,2336);
},
{
color = (153, 154, 255, 255);
glyphname = "esignshort-deva";
layers = (
{
layerId = "B30EA165-19C2-4F34-BC31-371C20B6C198";
name = regular;
shapes = (
{
attr = {
strokeWidth = 80;
};
closed = 0;
nodes = (
(-49,660,l),
(619,660,l)
);
},
{
attr = {
strokeWidth = 80;
};
closed = 0;
nodes = (
(420,643,l),
(420,481,l),
(224,481,l),
(83,485,o),
(96,280,o),
(180,280,cs),
(422,280,ls),
(491,280,o),
(518,56,o),
(375,40,cs),
(193,20,o),
(98,64,o),
(98,159,c)
);
}
);
width = 580;
}
);
unicode = (2374,2337);
},
{
color = (153, 154, 255, 255);
glyphname = "esign-deva";
layers = (
{
layerId = "B30EA165-19C2-4F34-BC31-371C20B6C198";
name = regular;
shapes = (
{
attr = {
strokeWidth = 80;
};
closed = 0;
nodes = (
(-42,660,l),
(636,660,l)
);
},
{
attr = {
strokeWidth = 80;
};
closed = 0;
nodes = (
(460,637,l),
(460,460,l),
(264,460,l),
(264,460,o),
(127,441,o),
(105,327,cs),
(90,247,o),
(109,188,o),
(156,128,cs),
(250,9,o),
(486,7,o),
(535,134,cs),
(545,160,o),
(553,247,o),
(468,252,cs),
(379,257,o),
(392,159,o),
(392,136,c)
);
}
);
width = 621;
}
);
unicode = (2375,2338);
},
{
color = (153, 154, 255, 255);
glyphname = "aisign-deva";
layers = (
{
layerId = "B30EA165-19C2-4F34-BC31-371C20B6C198";
name = regular;
shapes = (
{
attr = {
strokeWidth = 80;
};
closed = 0;
nodes = (
(400,660,l),
(400,354,l),
(388,264,o),
(343,234,o),
(252,235,cs),
(144,236,o),
(129,299,o),
(120,368,c),
(120,641,l)
);
},
{
attr = {
strokeWidth = 80;
};
closed = 0;
nodes = (
(-59,660,l),
(772,660,l)
);
},
{
attr = {
strokeWidth = 80;
};
closed = 0;
nodes = (
(640,627,l),
(640,0,l)
);
}
);
width = 760;
}
);
unicode = (2376,2339);
},
{
color = (153, 154, 255, 255);
glyphname = "osigncandra-deva";
layers = (
{
layerId = "B30EA165-19C2-4F34-BC31-371C20B6C198";
name = regular;
shapes = (
{
attr = {
strokeWidth = 80;
lineCapEnd = 4;
};
closed = 0;
nodes = (
(480,626,l),
(480,0,l)
);
},
{
attr = {
strokeWidth = 80;
lineCapEnd = 4;
};
closed = 0;
nodes = (
(-13,660,l),
(620,660,l)
);
},
{
attr = {
strokeWidth = 80;
lineCapEnd = 4;
};
closed = 0;
nodes = (
(506,400,l),
(239,400,l),
(239,400,o),
(28,415,o),
(120,157,c)
);
},
{
attr = {
strokeWidth = 80;
lineCapEnd = 4;
};
closed = 0;
nodes = (
(97,276,l),
(95,162,o),
(165,79,o),
(232,0,c)
);
}
);
width = 600;
}
);
unicode = (2377,2340);
},
{
color = (153, 154, 255, 255);
glyphname = "osignshort-deva";
layers = (
{
guides = (
{
position = "{0, 112}";
}
);
layerId = "B30EA165-19C2-4F34-BC31-371C20B6C198";
name = regular;
shapes = (
{
attr = {
strokeWidth = 80;
};
closed = 0;
nodes = (
(377,660,l),
(635,660,l)
);
},
{
attr = {
strokeWidth = 80;
};
closed = 0;
nodes = (
(99,541,l),
(99,596,o),
(123,664,o),
(201,664,cs),
(339,664,o),
(362,355,o),
(94,382,c)
);
},
{
attr = {
strokeWidth = 80;
};
closed = 0;
nodes = (
(500,627,l),
(500,0,l)
);
},
{
attr = {
strokeWidth = 80;
};
closed = 0;
nodes = (
(100,421,l),
(99,273,o),
(173,156,o),
(322,158,cs),
(453,160,o),
(491,257,o),
(500,316,c)
);
}
);
width = 620;
}
);
unicode = (2378,2341);
},
{
color = (153, 154, 255, 255);
glyphname = "osign-deva";
layers = (
{
layerId = "6C8BA968-569F-454C-A45F-55F425C8024D";
name = 11;
shapes = (
{
attr = {
strokeWidth = 80;
};
closed = 0;
nodes = (
(-13,660,l),
(575,660,l)
);
},
{
attr = {
strokeWidth = 80;
};
closed = 0;
nodes = (
(438,637,l),
(438,479,l),
(250,481,l),
(250,481,o),
(141,480,o),
(114,410,cs),
(77,316,o),
(110,240,o),
(140,205,cs),
(204,131,o),
(364,116,o),
(451,168,c)
);
},
{
attr = {
strokeWidth = 80;
};
closed = 0;
nodes = (
(438,266,l),
(438,0,l)
);
}
);
width = 560;
},
{
layerId = "B30EA165-19C2-4F34-BC31-371C20B6C198";
name = regular;
shapes = (
{
attr = {
strokeWidth = 80;
};
closed = 0;
nodes = (
(-22,660,l),
(582,660,l)
);
},
{
attr = {
strokeWidth = 80;
};
closed = 0;
nodes = (
(460,637,l),
(460,480,l),
(271,480,l),
(271,480,o),
(158,481,o),
(121,410,cs),
(74,320,o),
(117,245,o),
(147,210,cs),
(216,130,o),
(378,115,o),
(474,173,c)
);
},
{
attr = {
strokeWidth = 80;
};
closed = 0;
nodes = (
(460,260,l),
(460,0,l)
);
}
);
width = 560;
}
);
unicode = (2379,2342);
},
{
color = (153, 154, 255, 255);
glyphname = "ausign-deva";
layers = (
{
layerId = "B30EA165-19C2-4F34-BC31-371C20B6C198";
name = regular;
shapes = (
{
attr = {
strokeWidth = 80;
};
closed = 0;
nodes = (
(440,660,l),
(712,660,l)
);
},
{
attr = {
strokeWidth = 80;
};
closed = 0;
nodes = (
(560,627,l),
(560,0,l)
);
},
{
attr = {
strokeWidth = 80;
};
closed = 0;
nodes = (
(319,422,l),
(40,388,o),
(51,663,o),
(215,663,cs),
(307,663,o),
(314,580,o),
(314,559,c)
);
},
{
attr = {
strokeWidth = 80;
};
closed = 0;
nodes = (
(346,422,l),
(228,422,o),
(170,378,o),
(162,312,cs),
(145,168,o),
(274,154,o),
(359,154,cs),
(518,154,o),
(552,277,o),
(559,349,c)
);
}
);
width = 680;
}
);
unicode = (2380,2343);
},
{
color = (153, 154, 255, 255);
glyphname = "virama-deva";
layers = (
{
layerId = "B30EA165-19C2-4F34-BC31-371C20B6C198";
name = regular;
shapes = (
{
attr = {
strokeWidth = 80;
};
closed = 0;
nodes = (
(440,628,l),
(440,1,l)
);
},
{
attr = {
strokeWidth = 80;
};
closed = 0;
nodes = (
(-15,660,l),
(580,660,l)
);
},
{
attr = {
strokeWidth = 80;
};
closed = 0;
nodes = (
(471,360,l),
(117,360,ls),
(61,360,o),
(51,230,o),
(172,242,c)
);
}
);
width = 560;
}
);
unicode = (2381,2344);
},
{
color = (153, 154, 255, 255);
glyphname = "awsign-deva";
layers = (
{
layerId = "B30EA165-19C2-4F34-BC31-371C20B6C198";
name = regular;
shapes = (
{
attr = {
strokeWidth = 80;
};
closed = 0;
nodes = (
(419,643,l),
(422,0,l)
);
},
{
attr = {
strokeWidth = 80;
};
closed = 0;
nodes = (
(-33,660,l),
(862,660,l)
);
},
{
attr = {
strokeWidth = 80;
};
closed = 0;
nodes = (
(120,636,l),
(120,363,l),
(136,286,o),
(165,236,o),
(273,235,cs),
(360,234,o),
(387,257,o),
(420,296,c)
);
},
{
attr = {
strokeWidth = 80;
};
closed = 0;
nodes = (
(417,323,l),
(458,437,o),
(599,448,o),
(682,390,cs),
(772,327,o),
(776,100,o),
(544,99,c)
);
}
);
width = 840;
}
);
unicode = (2383,2346);
},
{
color = (153, 154, 255, 255);
glyphname = "om-deva";
layers = (
{
layerId = "B30EA165-19C2-4F34-BC31-371C20B6C198";
name = regular;
shapes = (
{
attr = {
strokeWidth = 80;
};
closed = 0;
nodes = (
(440,627,l),
(440,0,l)
);
},
{
attr = {
strokeWidth = 80;
};
closed = 0;
nodes = (
(-19,660,l),
(574,660,l)
);
},
{
attr = {
strokeWidth = 80;
};
closed = 0;
nodes = (
(120,636,l),
(120,363,l),
(129,294,o),
(174,236,o),
(282,235,cs),
(369,234,o),
(403,263,o),
(438,307,c)
);
}
);
width = 559;
}
);
unicode = (2384,2347);
},
{
color = (153, 154, 255, 255);
glyphname = "esigncandralong-deva";
layers = (
{
layerId = "B30EA165-19C2-4F34-BC31-371C20B6C198";
name = regular;
shapes = (
{
attr = {
strokeWidth = 80;
};
closed = 0;
nodes = (
(421,624,l),
(421,0,l)
);
},
{
attr = {
strokeWidth = 80;
};
closed = 0;
nodes = (
(-41,660,l),
(567,660,l)
);
},
{
attr = {
strokeWidth = 80;
};
closed = 0;
nodes = (
(423,177,l),
(423,177,o),
(334,114,o),
(213,141,cs),
(65,174,o),
(40,382,o),
(145,456,cs),
(210,502,o),
(341,521,o),
(424,438,c)
);
},
{
attr = {
strokeWidth = 80;
};
closed = 0;
nodes = (
(362,152,l),
(362,152,o),
(173,456,o),
(173,459,c)
);
}
);
width = 540;
}
);
unicode = (2389,2348);
},
{
color = (153, 154, 255, 255);
glyphname = "uesign-deva";
layers = (
{
layerId = "B30EA165-19C2-4F34-BC31-371C20B6C198";
name = regular;
shapes = (
{
attr = {
strokeWidth = 80;
};
closed = 0;
nodes = (
(519,627,l),
(519,0,l)
);
},
{
attr = {
strokeWidth = 80;
};
closed = 0;
nodes = (
(285,660,l),
(651,660,l)
);
},
{
attr = {
strokeWidth = 80;
};
closed = 0;
nodes = (
(58,663,l),
(205,664,o),
(199,627,o),
(199,568,cs),
(199,455,o),
(199,326,o),
(199,213,c),
(190,201,o),
(79,280,o),
(171,280,cs),
(519,280,l)
);
}
);
width = 640;
}
);
unicode = (2390,2349);
},
{
color = (153, 154, 255, 255);
glyphname = "uuesign-deva";
layers = (
{
layerId = "B30EA165-19C2-4F34-BC31-371C20B6C198";
name = regular;
shapes = (
{
attr = {
strokeWidth = 80;
};
closed = 0;
nodes = (
(480,627,l),
(480,0,l)
);
},
{
attr = {
strokeWidth = 80;
};
closed = 0;
nodes = (
(-11,660,l),
(613,660,l)
);
},
{
attr = {
strokeWidth = 80;
};
closed = 0;
nodes = (
(480,280,l),
(130,280,ls),
(54,280,o),
(151,201,o),
(160,213,c),
(160,660,l)
);
}
);
width = 600;
}
);
unicode = (2391,2350);
},
{
color = (153, 154, 255, 255);
glyphname = "qa-deva";
layers = (
{
layerId = "B30EA165-19C2-4F34-BC31-371C20B6C198";
name = regular;
shapes = (
{
attr = {
strokeWidth = 80;
};
closed = 0;
nodes = (
(500,627,l),
(500,0,l)
);
},
{
attr = {
strokeWidth = 80;
};
closed = 0;
nodes = (
(-14,660,l),
(635,660,l)
);
},
{
attr = {
strokeWidth = 80;
};
closed = 0;
nodes = (
(99,421,l),
(98,273,o),
(183,154,o),
(320,157,cs),
(428,159,o),
(489,248,o),
(498,307,c)
);
},
{
attr = {
strokeWidth = 80;
};
closed = 0;
nodes = (
(90,660,l),
(296,660,o),
(335,381,o),
(92,381,c)
);
}
);
width = 620;
}
);
unicode = (2392,2351);
},
{
color = (153, 154, 255, 255);
glyphname = "khha-deva";
layers = (
{
guides = (
{
angle = 90;
position = "{340, 0}";
}
);
layerId = "B30EA165-19C2-4F34-BC31-371C20B6C198";
name = regular;
shapes = (
{
attr = {
strokeWidth = 80;
};
closed = 0;
nodes = (
(-18,660,l),
(414,660,l)
);
},
{
attr = {
strokeWidth = 80;
};
closed = 0;
nodes = (
(170,660,l),
(371,659,o),
(388,309,o),
(108,340,c)
);
},
{
attr = {
strokeWidth = 80;
};
closed = 0;
nodes = (
(301,3,l),
(273,45,o),
(92,360,o),
(75,393,cs)
);
}
);
width = 401;
}
);
unicode = (2393,2352);
},
{
color = (153, 154, 255, 255);
glyphname = "za-deva";
layers = (
{
layerId = "B30EA165-19C2-4F34-BC31-371C20B6C198";
name = regular;
shapes = (
{
attr = {
strokeWidth = 80;
lineCapEnd = 4;
};
closed = 0;
nodes = (
(559,626,l),
(559,0,l)
);
},
{
attr = {
strokeWidth = 80;
lineCapEnd = 4;
};
closed = 0;
nodes = (
(-15,660,l),
(738,660,l)
);
},
{
attr = {
strokeWidth = 80;
lineCapEnd = 4;
};
closed = 0;
nodes = (
(556,414,l),
(485,424,o),
(317,436,o),
(339,201,c)
);
},
{
attr = {
strokeWidth = 80;
lineCapEnd = 4;
};
closed = 0;
nodes = (
(358,330,l),
(282,500,o),
(73,430,o),
(79,276,cs),
(83,162,o),
(151,79,o),
(215,0,c)
);
}
);
width = 680;
}
);
unicode = (2395,2354);
},
{
color = (153, 154, 255, 255);
glyphname = "fa-deva";
layers = (
{
layerId = "B30EA165-19C2-4F34-BC31-371C20B6C198";
name = regular;
shapes = (
{
attr = {
strokeWidth = 80;
};
closed = 0;
nodes = (
(439,627,l),
(439,0,l)
);
},
{
attr = {
strokeWidth = 80;
};
closed = 0;
nodes = (
(-13,660,l),
(585,660,l)
);
},
{
attr = {
strokeWidth = 80;
};
closed = 0;
nodes = (
(439,198,l),
(439,198,o),
(361,112,o),
(235,137,cs),
(79,168,o),
(59,379,o),
(162,455,cs),
(226,502,o),
(368,510,o),
(440,415,c)
);
}
);
width = 560;
}
);
unicode = (2398,2357);
},
{
color = (153, 154, 255, 255);
glyphname = "yya-deva";
layers = (
{
layerId = "B30EA165-19C2-4F34-BC31-371C20B6C198";
name = regular;
shapes = (
{
attr = {
strokeWidth = 80;
};
closed = 0;
nodes = (
(600,627,l),
(600,0,l)
);
},
{
attr = {
strokeWidth = 80;
};
closed = 0;
nodes = (
(464,660,l),
(743,660,l)
);
},
{
attr = {
strokeWidth = 80;
};
closed = 0;
nodes = (
(295,3,l),
(267,45,o),
(94,350,o),
(77,383,cs)
);
},
{
attr = {
strokeWidth = 80;
};
closed = 0;
nodes = (
(218,479,l),
(109,478,o),
(98,667,o),
(263,667,cs),
(396,667,o),
(421,501,o),
(381,407,cs),
(335,300,o),
(183,303,o),
(104,323,c)
);
}
);
width = 720;
}
);
unicode = (2399,2358);
},
{
color = (153, 154, 255, 255);
glyphname = "vocalicrr-deva";
layers = (
{
layerId = "B30EA165-19C2-4F34-BC31-371C20B6C198";
name = regular;
shapes = (
{
attr = {
strokeWidth = 80;
};
closed = 0;
nodes = (
(440,627,l),
(440,0,l)
);
},
{
attr = {
strokeWidth = 80;
};
closed = 0;
nodes = (
(-9,660,l),
(575,660,l)
);
},
{
attr = {
strokeWidth = 80;
};
closed = 0;
nodes = (
(120,636,l),
(120,605,l),
(120,363,l),
(129,294,o),
(185,236,o),
(293,235,cs),
(380,234,o),
(408,267,o),
(441,306,c)
);
},
{
attr = {
strokeWidth = 80;
};
closed = 0;
nodes = (
(419,292,l),
(137,629,l)
);
}
);
width = 560;
}
);
unicode = (2400,2359);
},
{
color = (153, 154, 255, 255);
glyphname = "vocalicll-deva";
layers = (
{
layerId = "B30EA165-19C2-4F34-BC31-371C20B6C198";
name = regular;
shapes = (
{
attr = {
strokeWidth = 80;
};
closed = 0;
nodes = (
(-25,660,l),
(695,660,l)
);
},
{
attr = {
strokeWidth = 80;
};
closed = 0;
nodes = (
(560,676,l),
(560,0,l)
);
},
{
attr = {
strokeWidth = 80;
};
closed = 0;
nodes = (
(549,320,l),
(116,320,l)
);
},
{
attr = {
strokeWidth = 80;
};
closed = 0;
nodes = (
(150,660,l),
(351,659,o),
(368,309,o),
(88,340,c)
);
},
{
attr = {
strokeWidth = 80;
};
closed = 0;
nodes = (
(297,0,l),
(269,42,o),
(75,360,o),
(58,393,cs)
);
}
);
width = 681;
}
);
unicode = (2401,2360);
},
{
color = (153, 154, 255, 255);
glyphname = "vocaliclsign-deva";
layers = (
{
layerId = "B30EA165-19C2-4F34-BC31-371C20B6C198";
name = regular;
shapes = (
{
attr = {
strokeWidth = 80;
};
closed = 0;
nodes = (
(-12,660,l),
(549,660,l)
);
},
{
attr = {
strokeWidth = 80;
};
closed = 0;
nodes = (
(359,643,l),
(359,480,l),
(178,480,l),
(87,470,o),
(61,328,o),
(164,250,c)
);
},
{
attr = {
strokeWidth = 80;
};
closed = 0;
nodes = (
(401,92,l),
(493,364,o),
(109,355,o),
(85,194,cs),
(73,113,o),
(85,-57,o),
(342,-23,c)
);
}
);
width = 524;
}
);
unicode = (2402,2361);
},
{
color = (153, 154, 255, 255);
glyphname = a;
layers = (
{
layerId = "6DAC43B8-F58E-4AB3-9E67-F272EAC2B07B";
shapes = (
{
attr = {
strokeWidth = 80;
};
closed = 0;
nodes = (
(251,36,l),
(295,36,o),
(347,68,o),
(365,106,c)
);
},
{
attr = {
strokeWidth = 80;
};
closed = 0;
nodes = (
(361,278,l),
(368,374,o),
(275,402,o),
(231,401,c),
(152,402,o),
(78,330,o),
(78,217,cs),
(78,121,o),
(115,36,o),
(269,36,c)
);
},
{
attr = {
strokeWidth = 80;
};
closed = 0;
nodes = (
(361,438,l),
(361,0,l)
);
}
);
width = 480;
}
);
unicode = 97;
},
{
color = (153, 154, 255, 255);
glyphname = b;
layers = (
{
guides = (
{
position = "{0, 1001}";
},
{
position = "{0, 1000}";
}
);
layerId = "6DAC43B8-F58E-4AB3-9E67-F272EAC2B07B";
shapes = (
{
attr = {
strokeWidth = 80;
};
closed = 0;
nodes = (
(119,640,l),
(119,0,l)
);
},
{
attr = {
strokeWidth = 80;
};
closed = 0;
nodes = (
(235,35,ls),
(346,35,o),
(397,121,o),
(397,217,cs),
(397,319,o),
(355,405,o),
(231,403,cs)
);
},
{
attr = {
strokeWidth = 80;
};
closed = 0;
nodes = (
(119,98,l),
(145,59,o),
(187,35,o),
(246,35,c)
);
},
{
attr = {
strokeWidth = 80;
};
closed = 0;
nodes = (
(250,403,l),
(190,403,o),
(148,383,o),
(123,348,c)
);
}
);
width = 480;
}
);
unicode = 98;
},
{
color = (153, 154, 255, 255);
glyphname = c;
layers = (
{
layerId = "6DAC43B8-F58E-4AB3-9E67-F272EAC2B07B";
shapes = (
{
attr = {
strokeWidth = 80;
};
closed = 0;
nodes = (
(244,403,ls),
(123,406,o),
(80,320,o),
(80,219,cs),
(80,123,o),
(131,38,o),
(241,38,cs)
);
},
{
attr = {
strokeWidth = 80;
};
closed = 0;
nodes = (
(231,38,l),
(290,38,o),
(331,62,o),
(357,101,c)
);
},
{
attr = {
strokeWidth = 80;
};
closed = 0;
nodes = (
(353,349,l),
(327,384,o),
(286,404,o),
(226,403,c)
);
}
);
width = 400;
}
);
unicode = 99;
},
{
color = (153, 154, 255, 255);
glyphname = d;
layers = (
{
layerId = "6DAC43B8-F58E-4AB3-9E67-F272EAC2B07B";
shapes = (
{
attr = {
strokeWidth = 80;
};
closed = 0;
nodes = (
(359,0,l),
(359,639,l)
);
},
{
attr = {
strokeWidth = 80;
};
closed = 0;
nodes = (
(242,402,ls),
(119,404,o),
(77,318,o),
(77,216,cs),
(77,120,o),
(128,35,o),
(238,35,cs)
);
},
{
attr = {
strokeWidth = 80;
};
closed = 0;
nodes = (
(228,35,l),
(287,35,o),
(329,59,o),
(354,98,c)
);
},
{
attr = {
strokeWidth = 80;
};
closed = 0;
nodes = (
(351,348,l),
(325,382,o),
(283,402,o),
(224,402,c)
);
}
);
width = 479;
}
);
unicode = 100;
},
{
color = (153, 154, 255, 255);
glyphname = f;
layers = (
{
layerId = "6DAC43B8-F58E-4AB3-9E67-F272EAC2B07B";
shapes = (
{
attr = {
strokeWidth = 80;
};
closed = 0;
nodes = (
(118,0,l),
(118,209,o),
(118,325,o),
(118,545,cs),
(118,609,o),
(262,637,o),
(262,509,c)
);
},
{
attr = {
strokeWidth = 80;
};
closed = 0;
nodes = (
(9,400,l),
(262,400,l)
);
}
);
width = 241;
}
);
unicode = 102;
},
{
color = (153, 154, 255, 255);
glyphname = g;
layers = (
{
layerId = "6DAC43B8-F58E-4AB3-9E67-F272EAC2B07B";
shapes = (
{
attr = {
strokeWidth = 80;
};
closed = 0;
nodes = (
(250,406,ls),
(127,409,o),
(75,325,o),
(75,222,cs),
(75,126,o),
(136,39,o),
(246,39,cs)
);
},
{
attr = {
strokeWidth = 80;
};
closed = 0;
nodes = (
(236,39,l),
(295,39,o),
(329,65,o),
(354,103,c)
);
},
{
attr = {
strokeWidth = 80;
};
closed = 0;
nodes = (
(360,354,l),
(334,388,o),
(293,407,o),
(233,406,c)
);
},
{
attr = {
strokeWidth = 80;
};
closed = 0;
nodes = (
(361,440,l),
(361,-134,l)
);
},
{
attr = {
strokeWidth = 80;
};
closed = 0;
nodes = (
(368,-111,l),
(341,-150,o),
(291,-185,o),
(228,-185,cs),
(148,-185,o),
(87,-154,o),
(88,-65,c)
);
}
);
width = 462;
}
);
unicode = 103;
},
{
color = (153, 154, 255, 255);
glyphname = h;
layers = (
{
layerId = "6DAC43B8-F58E-4AB3-9E67-F272EAC2B07B";
shapes = (
{
attr = {
strokeWidth = 80;
};
closed = 0;
nodes = (
(119,640,l),
(119,0,l)
);
},
{
attr = {
strokeWidth = 80;
};
closed = 0;
nodes = (
(379,0,l),
(379,276,l),
(375,380,o),
(309,399,o),
(266,399,cs),
(119,399,o),
(119,210,o),
(119,204,cs)
);
}
);
width = 479;
}
);
unicode = 104;
},
{
color = (153, 154, 255, 255);
glyphname = i;
layers = (
{
layerId = "022719D6-9DAB-4088-AC98-F18C0DF77DFF";
associatedMasterId = "6DAC43B8-F58E-4AB3-9E67-F272EAC2B07B";
name = 11;
shapes = (
{
attr = {
strokeWidth = 80;
};
closed = 0;
nodes = (
(119,500,l),
(119,0,l)
);
},
{
attr = {
strokeWidth = 80;
};
closed = 0;
nodes = (
(120,561,l),
(120,679,l)
);
}
);
width = 239;
},
{
layerId = "7AA5D38E-DBA0-4921-B212-5F2D6D95B2F1";
associatedMasterId = "6DAC43B8-F58E-4AB3-9E67-F272EAC2B07B";
name = 10;
shapes = (
{
attr = {
strokeWidth = 80;
};
closed = 0;
nodes = (
(119,440,l),
(119,0,l)
);
},
{
attr = {
strokeWidth = 80;
};
closed = 0;
nodes = (
(120,521,l),
(120,599,l)
);
}
);
width = 239;
},
{
layerId = "5A4F9F58-C931-480E-824A-E893708A8707";
associatedMasterId = "6DAC43B8-F58E-4AB3-9E67-F272EAC2B07B";
name = 9;
shapes = (
{
attr = {
strokeWidth = 80;
};
closed = 0;
nodes = (
(119,440,l),
(119,0,l)
);
},
{
attr = {
strokeWidth = 80;
};
closed = 0;
nodes = (
(120,521,l),
(120,639,l)
);
}
);
width = 239;
},
{
layerId = "E6C65CF8-076D-401C-94DA-D3A17B2319C5";
associatedMasterId = "6DAC43B8-F58E-4AB3-9E67-F272EAC2B07B";
name = 8;
shapes = (
{
attr = {
};
closed = 1;
nodes = (
(160,436,l),
(73,504,l),
(-6,438,l),
(35,393,l),
(62,417,l),
(80,403,l),
(80,108,l),
(49,65,l),
(171,-3,l),
(248,87,l),
(203,121,l),
(181,95,l),
(160,106,l)
);
},
{
attr = {
strokeWidth = 80;
};
closed = 0;
nodes = (
(124,527,l),
(181,589,l)
);
}
);
width = 239;
},
{
layerId = "BE528A8F-C28D-4C43-81F3-4AC79E9C2004";
associatedMasterId = "6DAC43B8-F58E-4AB3-9E67-F272EAC2B07B";
name = 7;
shapes = (
{
attr = {
strokeWidth = 80;
};
closed = 0;
nodes = (
(118,500,l),
(118,1,l)
);
},
{
attr = {
strokeWidth = 80;
};
closed = 0;
nodes = (
(121,646,l),
(121,557,l)
);
}
);
width = 242;
},
{
layerId = "9B38AD41-0E22-4C0E-A3E3-1B6DF6F9DD23";
associatedMasterId = "6DAC43B8-F58E-4AB3-9E67-F272EAC2B07B";
name = 6;
shapes = (
{
attr = {
strokeWidth = 80;
};
closed = 0;
nodes = (
(118,500,l),
(118,1,l)
);
},
{
attr = {
strokeWidth = 80;
};
closed = 0;
nodes = (
(121,646,l),
(121,557,l)
);
}
);
width = 242;
},
{
layerId = "6A4F35B0-CB0F-439B-B1C2-41017A534AEB";
associatedMasterId = "6DAC43B8-F58E-4AB3-9E67-F272EAC2B07B";
name = 3;
shapes = (
{
attr = {
strokeWidth = 80;
};
closed = 0;
nodes = (
(118,500,l),
(118,1,l)
);
},
{
attr = {
strokeWidth = 80;
};
closed = 0;
nodes = (
(121,646,l),
(121,557,l)
);
}
);
width = 242;
},
{
layerId = "7679A5AC-7644-449A-A86C-BC3F09BF0D87";
associatedMasterId = "6DAC43B8-F58E-4AB3-9E67-F272EAC2B07B";
name = 2;
shapes = (
{
attr = {
strokeWidth = 80;
};
closed = 0;
nodes = (
(118,500,l),
(118,1,l)
);
},
{
attr = {
strokeWidth = 80;
};
closed = 0;
nodes = (
(121,646,l),
(121,557,l)
);
}
);
width = 242;
},
{
layerId = "B3204B7C-9545-4C36-AAEF-2959DB7B6035";
associatedMasterId = "6DAC43B8-F58E-4AB3-9E67-F272EAC2B07B";
name = 4;
shapes = (
{
attr = {
strokeWidth = 80;
};
closed = 0;
nodes = (
(118,500,l),
(118,1,l)
);
},
{
attr = {
strokeWidth = 80;
};
closed = 0;
nodes = (
(121,646,l),
(121,557,l)
);
}
);
width = 242;
},
{
layerId = "B21CCB51-6379-4D2A-BD3E-100FB8E6AD2A";
associatedMasterId = "6DAC43B8-F58E-4AB3-9E67-F272EAC2B07B";
name = 5;
shapes = (
{
attr = {
strokeWidth = 80;
};
closed = 0;
nodes = (
(118,500,l),
(118,1,l)
);
},
{
attr = {
strokeWidth = 80;
};
closed = 0;
nodes = (
(121,646,l),
(121,557,l)
);
}
);
width = 242;
},
{
layerId = "6DAC43B8-F58E-4AB3-9E67-F272EAC2B07B";
shapes = (
{
attr = {
strokeWidth = 80;
};
closed = 0;
nodes = (
(118,500,l),
(118,1,l)
);
},
{
attr = {
strokeWidth = 80;
};
closed = 0;
nodes = (
(121,646,l),
(121,557,l)
);
}
);
width = 242;
}
);
unicode = 105;
},
{
color = (153, 154, 255, 255);
glyphname = j;
layers = (
{
layerId = "6DAC43B8-F58E-4AB3-9E67-F272EAC2B07B";
shapes = (
{
attr = {
strokeWidth = 80;
};
closed = 0;
nodes = (
(120,400,l),
(120,-140,ls),
(120,-221,o),
(0,-207,o),
(-2,-207,c)
);
},
{
attr = {
strokeWidth = 80;
};
closed = 0;
nodes = (
(120,481,l),
(120,559,l)
);
}
);
width = 240;
}
);
unicode = 106;
},
{
color = (153, 154, 255, 255);
glyphname = l;
layers = (
{
layerId = "6DAC43B8-F58E-4AB3-9E67-F272EAC2B07B";
shapes = (
{
attr = {
strokeWidth = 80;
};
closed = 0;
nodes = (
(119,640,l),
(119,0,l)
);
}
);
width = 240;
}
);
unicode = 108;
},
{
color = (153, 154, 255, 255);
glyphname = m;
layers = (
{
layerId = "6DAC43B8-F58E-4AB3-9E67-F272EAC2B07B";
shapes = (
{
attr = {
strokeWidth = 80;
};
closed = 0;
nodes = (
(119,439,l),
(119,0,l)
);
},
{
attr = {
strokeWidth = 80;
};
closed = 0;
nodes = (
(379,0,l),
(379,276,l),
(375,380,o),
(309,404,o),
(266,404,cs),
(119,404,o),
(119,210,o),
(119,204,cs)
);
},
{
attr = {
strokeWidth = 80;
};
closed = 0;
nodes = (
(639,0,l),
(639,276,l),
(635,380,o),
(569,404,o),
(526,404,cs),
(379,404,o),
(379,210,o),
(379,204,cs)
);
}
);
width = 763;
}
);
unicode = 109;
},
{
color = (153, 154, 255, 255);
glyphname = n;
layers = (
{
layerId = "022719D6-9DAB-4088-AC98-F18C0DF77DFF";
associatedMasterId = "6DAC43B8-F58E-4AB3-9E67-F272EAC2B07B";
name = 11;
shapes = (
{
attr = {
strokeWidth = 80;
};
closed = 0;
nodes = (
(119,500,l),
(119,0,l)
);
},
{
attr = {
strokeWidth = 80;
};
closed = 0;
nodes = (
(440,0,l),
(440,328,l),
(436,443,o),
(333,466,o),
(292,464,cs),
(158,459,o),
(119,308,o),
(119,301,c)
);
}
);
width = 560;
},
{
layerId = "7AA5D38E-DBA0-4921-B212-5F2D6D95B2F1";
associatedMasterId = "6DAC43B8-F58E-4AB3-9E67-F272EAC2B07B";
name = 10;
shapes = (
{
attr = {
strokeWidth = 80;
};
closed = 0;
nodes = (
(119,439,l),
(119,0,l)
);
},
{
attr = {
strokeWidth = 80;
};
closed = 0;
nodes = (
(379,0,l),
(379,276,l),
(375,380,o),
(309,404,o),
(266,404,cs),
(119,404,o),
(119,210,o),
(119,204,cs)
);
}
);
width = 477;
},
{
layerId = "5A4F9F58-C931-480E-824A-E893708A8707";
associatedMasterId = "6DAC43B8-F58E-4AB3-9E67-F272EAC2B07B";
name = 9;
shapes = (
{
attr = {
strokeWidth = 80;
};
closed = 0;
nodes = (
(119,439,l),
(119,0,l)
);
},
{
attr = {
strokeWidth = 80;
};
closed = 0;
nodes = (
(379,0,l),
(379,276,l),
(375,380,o),
(309,404,o),
(266,404,cs),
(119,404,o),
(119,210,o),
(119,204,cs)
);
}
);
width = 479;
},
{
layerId = "E6C65CF8-076D-401C-94DA-D3A17B2319C5";
associatedMasterId = "6DAC43B8-F58E-4AB3-9E67-F272EAC2B07B";
name = 8;
shapes = (
{
closed = 1;
nodes = (
(80,108,l),
(49,65,l),
(171,-3,l),
(248,87,l),
(203,121,l),
(181,95,l),
(160,106,l),
(160,333,l),
(300,403,l),
(400,343,l),
(400,108,l),
(368,65,l),
(490,-3,l),
(567,87,l),
(522,121,l),
(500,95,l),
(480,106,l),
(480,353,l),
(500,380,l),
(302,502,l),
(160,426,l),
(77,502,l),
(-6,444,l),
(32,399,l),
(60,421,l),
(80,403,l)
);
}
);
width = 558;
},
{
layerId = "BE528A8F-C28D-4C43-81F3-4AC79E9C2004";
associatedMasterId = "6DAC43B8-F58E-4AB3-9E67-F272EAC2B07B";
name = 7;
shapes = (
{
attr = {
strokeWidth = 80;
};
closed = 0;
nodes = (
(119,501,l),
(119,0,l)
);
},
{
attr = {
strokeWidth = 80;
};
closed = 0;
nodes = (
(118,323,l),
(118,323,o),
(146,490,o),
(325,471,c),
(445,452,o),
(439,317,o),
(439,317,c),
(439,317,o),
(439,0,o),
(439,0,c)
);
}
);
width = 561;
},
{
layerId = "9B38AD41-0E22-4C0E-A3E3-1B6DF6F9DD23";
associatedMasterId = "6DAC43B8-F58E-4AB3-9E67-F272EAC2B07B";
name = 6;
shapes = (
{
attr = {
strokeWidth = 80;
};
closed = 0;
nodes = (
(119,501,l),
(119,0,l)
);
},
{
attr = {
strokeWidth = 80;
};
closed = 0;
nodes = (
(118,323,l),
(118,323,o),
(146,490,o),
(325,471,c),
(445,452,o),
(439,317,o),
(439,317,c),
(439,317,o),
(439,0,o),
(439,0,c)
);
}
);
width = 561;
},
{
layerId = "6A4F35B0-CB0F-439B-B1C2-41017A534AEB";
associatedMasterId = "6DAC43B8-F58E-4AB3-9E67-F272EAC2B07B";
name = 3;
shapes = (
{
attr = {
strokeWidth = 80;
};
closed = 0;
nodes = (
(119,501,l),
(119,0,l)
);
},
{
attr = {
strokeWidth = 80;
};
closed = 0;
nodes = (
(118,323,l),
(118,323,o),
(146,490,o),
(325,471,c),
(445,452,o),
(439,317,o),
(439,317,c),
(439,317,o),
(439,0,o),
(439,0,c)
);
}
);
width = 561;
},
{
layerId = "7679A5AC-7644-449A-A86C-BC3F09BF0D87";
associatedMasterId = "6DAC43B8-F58E-4AB3-9E67-F272EAC2B07B";
name = 2;
shapes = (
{
attr = {
strokeWidth = 80;
};
closed = 0;
nodes = (
(119,501,l),
(119,0,l)
);
},
{
attr = {
strokeWidth = 80;
};
closed = 0;
nodes = (
(118,323,l),
(118,323,o),
(146,490,o),
(325,471,c),
(445,452,o),
(439,317,o),
(439,317,c),
(439,317,o),
(439,0,o),
(439,0,c)
);
}
);
width = 561;
},
{
layerId = "B3204B7C-9545-4C36-AAEF-2959DB7B6035";
associatedMasterId = "6DAC43B8-F58E-4AB3-9E67-F272EAC2B07B";
name = 4;
shapes = (
{
attr = {
strokeWidth = 80;
};
closed = 0;
nodes = (
(119,501,l),
(119,0,l)
);
},
{
attr = {
strokeWidth = 80;
};
closed = 0;
nodes = (
(118,323,l),
(118,323,o),
(146,490,o),
(325,471,c),
(445,452,o),
(439,317,o),
(439,317,c),
(439,317,o),
(439,0,o),
(439,0,c)
);
}
);
width = 561;
},
{
layerId = "B21CCB51-6379-4D2A-BD3E-100FB8E6AD2A";
associatedMasterId = "6DAC43B8-F58E-4AB3-9E67-F272EAC2B07B";
name = 5;
shapes = (
{
attr = {
strokeWidth = 80;
};
closed = 0;
nodes = (
(119,501,l),
(119,0,l)
);
},
{
attr = {
strokeWidth = 80;
};
closed = 0;
nodes = (
(118,323,l),
(118,323,o),
(146,490,o),
(325,471,c),
(445,452,o),
(439,317,o),
(439,317,c),
(439,317,o),
(439,0,o),
(439,0,c)
);
}
);
width = 561;
},
{
layerId = "6DAC43B8-F58E-4AB3-9E67-F272EAC2B07B";
shapes = (
{
attr = {
strokeWidth = 80;
};
closed = 0;
nodes = (
(119,439,l),
(119,0,l)
);
},
{
attr = {
strokeWidth = 80;
};
closed = 0;
nodes = (
(379,0,l),
(379,276,l),
(375,380,o),
(309,404,o),
(266,404,cs),
(119,404,o),
(119,210,o),
(119,204,cs)
);
}
);
width = 501;
}
);
unicode = 110;
},
{
color = (153, 154, 255, 255);
glyphname = o;
layers = (
{
layerId = "022719D6-9DAB-4088-AC98-F18C0DF77DFF";
associatedMasterId = "6DAC43B8-F58E-4AB3-9E67-F272EAC2B07B";
name = 11;
shapes = (
{
attr = {
strokeWidth = 80;
};
closed = 0;
nodes = (
(271,464,l),
(130,467,o),
(80,368,o),
(80,250,cs),
(80,139,o),
(140,39,o),
(267,39,c)
);
},
{
attr = {
strokeWidth = 80;
};
closed = 0;
nodes = (
(255,39,l),
(382,39,o),
(440,139,o),
(440,250,cs),
(440,361,o),
(396,467,o),
(251,464,c)
);
}
);
width = 521;
},
{
layerId = "7AA5D38E-DBA0-4921-B212-5F2D6D95B2F1";
associatedMasterId = "6DAC43B8-F58E-4AB3-9E67-F272EAC2B07B";
name = 10;
shapes = (
{
attr = {
strokeWidth = 80;
};
closed = 0;
nodes = (
(243,403,l),
(123,405,o),
(80,320,o),
(80,219,cs),
(80,125,o),
(131,39,o),
(240,39,c)
);
},
{
attr = {
strokeWidth = 80;
};
closed = 0;
nodes = (
(230,39,l),
(338,39,o),
(388,125,o),
(388,219,cs),
(388,314,o),
(350,405,o),
(226,403,c)
);
}
);
width = 480;
},
{
layerId = "5A4F9F58-C931-480E-824A-E893708A8707";
associatedMasterId = "6DAC43B8-F58E-4AB3-9E67-F272EAC2B07B";
name = 9;
shapes = (
{
attr = {
strokeWidth = 80;
};
closed = 0;
nodes = (
(253,400,ls),
(132,402,o),
(80,317,o),
(80,218,cs),
(80,124,o),
(141,39,o),
(248,39,cs)
);
},
{
attr = {
strokeWidth = 80;
};
closed = 0;
nodes = (
(228,39,ls),
(346,39,o),
(394,124,o),
(394,218,cs),
(394,312,o),
(358,402,o),
(225,400,cs)
);
}
);
width = 478;
},
{
layerId = "E6C65CF8-076D-401C-94DA-D3A17B2319C5";
associatedMasterId = "6DAC43B8-F58E-4AB3-9E67-F272EAC2B07B";
name = 8;
shapes = (
{
closed = 1;
nodes = (
(481,115,l),
(267,0,l),
(49,123,l),
(80,165,l),
(80,401,l),
(292,501,l),
(500,378,l),
(480,351,l)
);
},
{
closed = 1;
nodes = (
(400,165,l),
(400,341,l),
(290,402,l),
(160,342,l),
(160,156,l),
(269,99,l)
);
}
);
width = 564;
},
{
layerId = "BE528A8F-C28D-4C43-81F3-4AC79E9C2004";
associatedMasterId = "6DAC43B8-F58E-4AB3-9E67-F272EAC2B07B";
name = 7;
shapes = (
{
closed = 1;
nodes = (
(56,117,o),
(152,0,o),
(282,0,cs),
(411,0,o),
(507,117,o),
(507,250,cs),
(507,382,o),
(411,499,o),
(282,499,cs),
(153,499,o),
(56,382,o),
(56,250,cs)
);
},
{
closed = 1;
nodes = (
(136,348,o),
(205,419,o),
(282,419,cs),
(357,419,o),
(427,348,o),
(427,250,cs),
(427,151,o),
(357,80,o),
(282,80,cs),
(206,80,o),
(136,151,o),
(136,250,cs)
);
}
);
width = 564;
},
{
layerId = "9B38AD41-0E22-4C0E-A3E3-1B6DF6F9DD23";
associatedMasterId = "6DAC43B8-F58E-4AB3-9E67-F272EAC2B07B";
name = 6;
shapes = (
{
closed = 1;
nodes = (
(56,117,o),
(152,0,o),
(282,0,cs),
(411,0,o),
(507,117,o),
(507,250,cs),
(507,382,o),
(411,499,o),
(282,499,cs),
(153,499,o),
(56,382,o),
(56,250,cs)
);
},
{
closed = 1;
nodes = (
(136,348,o),
(205,419,o),
(282,419,cs),
(357,419,o),
(427,348,o),
(427,250,cs),
(427,151,o),
(357,80,o),
(282,80,cs),
(206,80,o),
(136,151,o),
(136,250,cs)
);
}
);
width = 564;
},
{
layerId = "6A4F35B0-CB0F-439B-B1C2-41017A534AEB";
associatedMasterId = "6DAC43B8-F58E-4AB3-9E67-F272EAC2B07B";
name = 3;
shapes = (
{
closed = 1;
nodes = (
(56,117,o),
(152,0,o),
(282,0,cs),
(411,0,o),
(507,117,o),
(507,250,cs),
(507,382,o),
(411,499,o),
(282,499,cs),
(153,499,o),
(56,382,o),
(56,250,cs)
);
},
{
closed = 1;
nodes = (
(136,348,o),
(205,419,o),
(282,419,cs),
(357,419,o),
(427,348,o),
(427,250,cs),
(427,151,o),
(357,80,o),
(282,80,cs),
(206,80,o),
(136,151,o),
(136,250,cs)
);
}
);
width = 564;
},
{
layerId = "7679A5AC-7644-449A-A86C-BC3F09BF0D87";
associatedMasterId = "6DAC43B8-F58E-4AB3-9E67-F272EAC2B07B";
name = 2;
shapes = (
{
closed = 1;
nodes = (
(56,117,o),
(152,0,o),
(282,0,cs),
(411,0,o),
(507,117,o),
(507,250,cs),
(507,382,o),
(411,499,o),
(282,499,cs),
(153,499,o),
(56,382,o),
(56,250,cs)
);
},
{
closed = 1;
nodes = (
(136,348,o),
(205,419,o),
(282,419,cs),
(357,419,o),
(427,348,o),
(427,250,cs),
(427,151,o),
(357,80,o),
(282,80,cs),
(206,80,o),
(136,151,o),
(136,250,cs)
);
}
);
width = 564;
},
{
layerId = "B3204B7C-9545-4C36-AAEF-2959DB7B6035";
associatedMasterId = "6DAC43B8-F58E-4AB3-9E67-F272EAC2B07B";
name = 4;
shapes = (
{
closed = 1;
nodes = (
(56,117,o),
(152,0,o),
(282,0,cs),
(411,0,o),
(507,117,o),
(507,250,cs),
(507,382,o),
(411,499,o),
(282,499,cs),
(153,499,o),
(56,382,o),
(56,250,cs)
);
},
{
closed = 1;
nodes = (
(136,348,o),
(205,419,o),
(282,419,cs),
(357,419,o),
(427,348,o),
(427,250,cs),
(427,151,o),
(357,80,o),
(282,80,cs),
(206,80,o),
(136,151,o),
(136,250,cs)
);
}
);
width = 564;
},
{
layerId = "B21CCB51-6379-4D2A-BD3E-100FB8E6AD2A";
associatedMasterId = "6DAC43B8-F58E-4AB3-9E67-F272EAC2B07B";
name = 5;
shapes = (
{
closed = 1;
nodes = (
(56,117,o),
(152,0,o),
(282,0,cs),
(411,0,o),
(507,117,o),
(507,250,cs),
(507,382,o),
(411,499,o),
(282,499,cs),
(153,499,o),
(56,382,o),
(56,250,cs)
);
},
{
closed = 1;
nodes = (
(136,348,o),
(205,419,o),
(282,419,cs),
(357,419,o),
(427,348,o),
(427,250,cs),
(427,151,o),
(357,80,o),
(282,80,cs),
(206,80,o),
(136,151,o),
(136,250,cs)
);
}
);
width = 564;
},
{
layerId = "6DAC43B8-F58E-4AB3-9E67-F272EAC2B07B";
shapes = (
{
attr = {
strokeWidth = 80;
};
closed = 0;
nodes = (
(253,400,ls),
(132,402,o),
(80,317,o),
(80,218,cs),
(80,124,o),
(141,39,o),
(248,39,cs)
);
},
{
attr = {
strokeWidth = 80;
};
closed = 0;
nodes = (
(228,39,ls),
(346,39,o),
(399,124,o),
(399,218,cs),
(399,312,o),
(358,402,o),
(225,400,cs)
);
}
);
width = 480;
}
);
unicode = 111;
},
{
color = (153, 154, 255, 255);
glyphname = p;
layers = (
{
layerId = "6DAC43B8-F58E-4AB3-9E67-F272EAC2B07B";
shapes = (
{
attr = {
strokeWidth = 80;
};
closed = 0;
nodes = (
(119,438,l),
(119,-202,l)
);
},
{
attr = {
strokeWidth = 80;
};
closed = 0;
nodes = (
(231,35,ls),
(355,33,o),
(397,119,o),
(397,221,cs),
(397,317,o),
(346,403,o),
(235,403,cs)
);
},
{
attr = {
strokeWidth = 80;
};
closed = 0;
nodes = (
(246,403,l),
(187,403,o),
(145,379,o),
(119,340,c)
);
},
{
attr = {
strokeWidth = 80;
};
closed = 0;
nodes = (
(123,90,l),
(148,55,o),
(190,35,o),
(250,35,c)
);
}
);
width = 479;
}
);
unicode = 112;
},
{
color = (153, 154, 255, 255);
glyphname = q;
layers = (
{
layerId = "6DAC43B8-F58E-4AB3-9E67-F272EAC2B07B";
shapes = (
{
attr = {
strokeWidth = 80;
};
closed = 0;
nodes = (
(358,-202,l),
(358,438,l)
);
},
{
attr = {
strokeWidth = 80;
};
closed = 0;
nodes = (
(242,403,ls),
(131,403,o),
(80,317,o),
(80,221,cs),
(80,119,o),
(122,33,o),
(246,35,cs)
);
},
{
attr = {
strokeWidth = 80;
};
closed = 0;
nodes = (
(358,340,l),
(332,379,o),
(290,403,o),
(231,403,c)
);
},
{
attr = {
strokeWidth = 80;
};
closed = 0;
nodes = (
(227,35,l),
(287,35,o),
(329,55,o),
(354,90,c)
);
}
);
width = 479;
}
);
unicode = 113;
},
{
color = (153, 154, 255, 255);
glyphname = r;
layers = (
{
layerId = "6DAC43B8-F58E-4AB3-9E67-F272EAC2B07B";
shapes = (
{
attr = {
strokeWidth = 80;
};
closed = 0;
nodes = (
(119,440,l),
(119,0,l)
);
},
{
attr = {
strokeWidth = 80;
};
closed = 0;
nodes = (
(300,401,l),
(197,401,o),
(119,368,o),
(119,250,cs)
);
}
);
width = 321;
}
);
unicode = 114;
},
{
color = (153, 154, 255, 255);
glyphname = t;
layers = (
{
layerId = "6DAC43B8-F58E-4AB3-9E67-F272EAC2B07B";
shapes = (
{
attr = {
strokeWidth = 80;
};
closed = 0;
nodes = (
(119,581,l),
(119,0,l)
);
},
{
attr = {
strokeWidth = 80;
};
closed = 0;
nodes = (
(19,399,l),
(224,399,l)
);
}
);
width = 241;
}
);
unicode = 116;
},
{
color = (153, 154, 255, 255);
glyphname = u;
layers = (
{
layerId = "6DAC43B8-F58E-4AB3-9E67-F272EAC2B07B";
shapes = (
{
attr = {
strokeWidth = 80;
};
closed = 0;
nodes = (
(379,0,l),
(379,439,l)
);
},
{
attr = {
strokeWidth = 80;
};
closed = 0;
nodes = (
(119,439,l),
(119,163,l),
(123,59,o),
(189,35,o),
(232,35,cs),
(379,35,o),
(379,229,o),
(379,235,cs)
);
}
);
width = 480;
}
);
unicode = 117;
},
{
color = (153, 154, 255, 255);
glyphname = v;
layers = (
{
layerId = "6DAC43B8-F58E-4AB3-9E67-F272EAC2B07B";
shapes = (
{
attr = {
strokeWidth = 80;
lineCapEnd = 4;
lineCapStart = 4;
};
closed = 0;
nodes = (
(75,440,l),
(231,0,l)
);
},
{
attr = {
strokeWidth = 80;
lineCapEnd = 4;
lineCapStart = 4;
};
closed = 0;
nodes = (
(230,0,l),
(375,440,l)
);
}
);
width = 439;
}
);
unicode = 118;
},
{
color = (153, 154, 255, 255);
glyphname = w;
layers = (
{
layerId = "6DAC43B8-F58E-4AB3-9E67-F272EAC2B07B";
shapes = (
{
attr = {
strokeWidth = 80;
lineCapEnd = 4;
lineCapStart = 4;
};
closed = 0;
nodes = (
(77,441,l),
(231,0,l)
);
},
{
attr = {
strokeWidth = 80;
lineCapEnd = 4;
lineCapStart = 4;
};
closed = 0;
nodes = (
(231,0,l),
(385,441,l)
);
},
{
attr = {
strokeWidth = 80;
lineCapEnd = 4;
lineCapStart = 4;
};
closed = 0;
nodes = (
(389,441,l),
(554,0,l)
);
},
{
attr = {
strokeWidth = 80;
lineCapEnd = 4;
lineCapStart = 4;
};
closed = 0;
nodes = (
(553,0,l),
(688,441,l)
);
}
);
width = 762;
}
);
unicode = 119;
},
{
color = (153, 154, 255, 255);
glyphname = x;
layers = (
{
layerId = "6DAC43B8-F58E-4AB3-9E67-F272EAC2B07B";
shapes = (
{
attr = {
strokeWidth = 80;
lineCapEnd = 4;
lineCapStart = 4;
};
closed = 0;
nodes = (
(65,441,l),
(355,0,l)
);
},
{
attr = {
strokeWidth = 80;
lineCapEnd = 4;
lineCapStart = 4;
};
closed = 0;
nodes = (
(81,0,l),
(372,441,l)
);
}
);
width = 441;
}
);
unicode = 120;
},
{
color = (153, 154, 255, 255);
glyphname = y;
layers = (
{
layerId = "6DAC43B8-F58E-4AB3-9E67-F272EAC2B07B";
shapes = (
{
attr = {
strokeWidth = 80;
lineCapEnd = 4;
lineCapStart = 4;
};
closed = 0;
nodes = (
(66,441,l),
(227,-12,l)
);
},
{
attr = {
strokeWidth = 80;
lineCapEnd = 4;
lineCapStart = 4;
};
closed = 0;
nodes = (
(379,441,l),
(180,-151,ls),
(161,-208,o),
(106,-221,o),
(34,-201,c)
);
}
);
width = 442;
}
);
unicode = 121;
},
{
color = (153, 154, 255, 255);
glyphname = z;
layers = (
{
layerId = "6DAC43B8-F58E-4AB3-9E67-F272EAC2B07B";
shapes = (
{
attr = {
strokeWidth = 80;
lineCapEnd = 4;
lineCapStart = 4;
};
closed = 0;
nodes = (
(40,402,l),
(335,401,l)
);
},
{
attr = {
strokeWidth = 80;
lineCapEnd = 4;
lineCapStart = 4;
};
closed = 0;
nodes = (
(351,442,l),
(61,0,l)
);
},
{
attr = {
strokeWidth = 80;
lineCapEnd = 4;
lineCapStart = 4;
};
closed = 0;
nodes = (
(75,40,l),
(407,40,l)
);
}
);
width = 441;
}
);
unicode = 122;
},
{
color = (153, 154, 255, 255);
glyphname = "aasign-deva.1";
layers = (
{
layerId = "6DAC43B8-F58E-4AB3-9E67-F272EAC2B07B";
shapes = (
{
attr = {
strokeWidth = 80;
};
closed = 0;
nodes = (
(159,700,l),
(159,0,o),
(159,231,o),
(159,0,c)
);
},
{
attr = {
strokeWidth = 80;
};
closed = 0;
nodes = (
(-33,660,l),
(358,660,l)
);
}
);
width = 320;
}
);
},
{
color = (153, 154, 255, 255);
glyphname = "isign-deva.1";
layers = (
{
layerId = "6DAC43B8-F58E-4AB3-9E67-F272EAC2B07B";
shapes = (
{
attr = {
strokeWidth = 80;
};
closed = 0;
nodes = (
(160,0,l),
(160,231,o),
(160,-20,o),
(160,680,c),
(112,738,o),
(70,829,o),
(130,889,cs),
(197,956,o),
(302,922,o),
(352,879,cs),
(471,776,o),
(501,660,o),
(625,660,c)
);
},
{
attr = {
strokeWidth = 80;
};
closed = 0;
nodes = (
(20,660,l),
(655,660,l)
);
}
);
width = 340;
}
);
},
{
color = (153, 154, 255, 255);
glyphname = "iisign-deva.1";
layers = (
{
layerId = "6DAC43B8-F58E-4AB3-9E67-F272EAC2B07B";
shapes = (
{
attr = {
strokeWidth = 80;
};
closed = 0;
nodes = (
(-144,652,l),
(-248,717,o),
(-278,819,o),
(-223,889,cs),
(-174,953,o),
(-59,936,o),
(-6,885,cs),
(45,836,o),
(123,686,o),
(255,658,c)
);
},
{
attr = {
strokeWidth = 80;
};
closed = 0;
nodes = (
(-357,660,l),
(389,660,l)
);
},
{
attr = {
strokeWidth = 80;
};
closed = 0;
nodes = (
(200,680,l),
(200,-20,o),
(200,231,o),
(200,0,c)
);
}
);
width = 361;
}
);
},
{
color = (153, 154, 255, 255);
glyphname = "usign-deva.1";
layers = (
{
layerId = "6DAC43B8-F58E-4AB3-9E67-F272EAC2B07B";
shapes = (
{
attr = {
strokeWidth = 80;
};
closed = 0;
nodes = (
(310,-73,l),
(353,7,o),
(465,-49,o),
(447,-130,cs),
(421,-249,o),
(108,-265,o),
(85,-39,c)
);
}
);
width = 540;
}
);
},
{
color = (153, 154, 255, 255);
glyphname = "uusign-deva.1";
layers = (
{
layerId = "6DAC43B8-F58E-4AB3-9E67-F272EAC2B07B";
shapes = (
{
attr = {
strokeWidth = 80;
};
closed = 0;
nodes = (
(203,-183,l),
(137,-245,o),
(54,-158,o),
(91,-85,cs),
(153,37,o),
(460,-68,o),
(457,-250,c)
);
}
);
width = 540;
}
);
},
{
color = (153, 154, 255, 255);
glyphname = "esignshort-deva.1";
layers = (
{
layerId = "6DAC43B8-F58E-4AB3-9E67-F272EAC2B07B";
shapes = (
{
attr = {
strokeWidth = 80;
};
closed = 0;
nodes = (
(160,645,l),
(157,762,o),
(124,980,o),
(-51,920,cs)
);
}
);
width = 320;
}
);
},
{
color = (153, 154, 255, 255);
glyphname = "esign-deva.1";
layers = (
{
layerId = "6DAC43B8-F58E-4AB3-9E67-F272EAC2B07B";
shapes = (
{
attr = {
strokeWidth = 80;
};
closed = 0;
nodes = (
(160,645,l),
(157,762,o),
(124,980,o),
(-51,920,cs)
);
}
);
width = 320;
}
);
},
{
color = (153, 154, 255, 255);
glyphname = "aisign-deva.1";
layers = (
{
layerId = "6DAC43B8-F58E-4AB3-9E67-F272EAC2B07B";
shapes = (
{
attr = {
strokeWidth = 80;
};
closed = 0;
nodes = (
(125,638,l),
(102,707,o),
(37,824,o),
(-77,824,c)
);
},
{
attr = {
strokeWidth = 80;
};
closed = 0;
nodes = (
(160,645,l),
(157,762,o),
(156,938,o),
(11,955,cs)
);
}
);
width = 299;
}
);
},
{
color = (153, 154, 255, 255);
glyphname = "osign-deva.1";
layers = (
{
layerId = "6DAC43B8-F58E-4AB3-9E67-F272EAC2B07B";
shapes = (
{
attr = {
strokeWidth = 80;
};
closed = 0;
nodes = (
(160,700,l),
(160,0,o),
(160,231,o),
(160,0,c)
);
},
{
attr = {
strokeWidth = 80;
};
closed = 0;
nodes = (
(-30,660,l),
(351,660,l)
);
},
{
attr = {
strokeWidth = 80;
};
closed = 0;
nodes = (
(160,645,l),
(157,762,o),
(124,980,o),
(-51,920,cs)
);
}
);
width = 319;
}
);
},
{
color = (153, 154, 255, 255);
glyphname = "ausign-deva.1";
layers = (
{
layerId = "6DAC43B8-F58E-4AB3-9E67-F272EAC2B07B";
shapes = (
{
attr = {
strokeWidth = 80;
};
closed = 0;
nodes = (
(125,638,l),
(102,707,o),
(37,824,o),
(-77,824,c)
);
},
{
attr = {
strokeWidth = 80;
};
closed = 0;
nodes = (
(160,700,l),
(160,0,o),
(160,231,o),
(160,0,c)
);
},
{
attr = {
strokeWidth = 80;
};
closed = 0;
nodes = (
(-163,660,l),
(360,660,l)
);
},
{
attr = {
strokeWidth = 80;
};
closed = 0;
nodes = (
(160,645,l),
(157,762,o),
(156,938,o),
(11,955,cs)
);
}
);
width = 340;
}
);
},
